<svg height="12" viewBox="0 0 12.1 12" width="12.1" xmlns="http://www.w3.org/2000/svg"><path d="m1307.659 50.393-1.908-1.9a1.111 1.111 0 0 0 -1.57 0l-1.093 1.094a.242.242 0 0 1 -.309.027 12.6 12.6 0 0 1 -2.944-2.89.237.237 0 0 1 .024-.309l1.121-1.12a1.112 1.112 0 0 0 0-1.569l-1.909-1.908a1.137 1.137 0 0 0 -1.572 0l-.6.6a3.4 3.4 0 0 0 -.843 3.464 10.172 10.172 0 0 0 1.243 2.519 13.21 13.21 0 0 0 3.813 3.746 9.721 9.721 0 0 0 2.825 1.257 3.3 3.3 0 0 0 .788.1 3.437 3.437 0 0 0 2.422-1.019l.519-.519a1.11 1.11 0 0 0 -.007-1.573z" fill="#0155c8" transform="translate(-1295.884 -41.5)"/></svg>